<svg width="40" height="40" viewBox="0 0 40 40" fill="none" xmlns="http://www.w3.org/2000/svg">
<path d="M32.5 6.25C32.499 5.25576 32.1035 4.30253 31.4005 3.59949C30.6975 2.89645 29.7442 2.50103 28.75 2.5H11.25C10.2558 2.50103 9.30253 2.89645 8.59949 3.59949C7.89645 4.30253 7.50103 5.25576 7.5 6.25V33.75C7.50103 34.7442 7.89645 35.6975 8.59949 36.4005C9.30253 37.1035 10.2558 37.499 11.25 37.5H28.75C29.7442 37.499 30.6975 37.1035 31.4005 36.4005C32.1035 35.6975 32.499 34.7442 32.5 33.75V6.25ZM13.125 33.75C12.7542 33.75 12.3916 33.64 12.0833 33.434C11.775 33.228 11.5346 32.9351 11.3927 32.5925C11.2508 32.2499 11.2137 31.8729 11.286 31.5092C11.3584 31.1455 11.537 30.8114 11.7992 30.5492C12.0614 30.287 12.3955 30.1084 12.7592 30.036C13.1229 29.9637 13.4999 30.0008 13.8425 30.1427C14.1851 30.2846 14.478 30.525 14.684 30.8333C14.89 31.1416 15 31.5042 15 31.875C15 32.3723 14.8025 32.8492 14.4508 33.2008C14.0992 33.5525 13.6223 33.75 13.125 33.75ZM13.125 27.5C12.7542 27.5 12.3916 27.39 12.0833 27.184C11.775 26.978 11.5346 26.6851 11.3927 26.3425C11.2508 25.9999 11.2137 25.6229 11.286 25.2592C11.3584 24.8955 11.537 24.5614 11.7992 24.2992C12.0614 24.037 12.3955 23.8584 12.7592 23.786C13.1229 23.7137 13.4999 23.7508 13.8425 23.8927C14.1851 24.0346 14.478 24.275 14.684 24.5833C14.89 24.8916 15 25.2542 15 25.625C15 26.1223 14.8025 26.5992 14.4508 26.9508C14.0992 27.3025 13.6223 27.5 13.125 27.5ZM13.125 21.25C12.7542 21.25 12.3916 21.14 12.0833 20.934C11.775 20.728 11.5346 20.4351 11.3927 20.0925C11.2508 19.7499 11.2137 19.3729 11.286 19.0092C11.3584 18.6455 11.537 18.3114 11.7992 18.0492C12.0614 17.787 12.3955 17.6084 12.7592 17.536C13.1229 17.4637 13.4999 17.5008 13.8425 17.6427C14.1851 17.7846 14.478 18.025 14.684 18.3333C14.89 18.6416 15 19.0042 15 19.375C15 19.8723 14.8025 20.3492 14.4508 20.7008C14.0992 21.0525 13.6223 21.25 13.125 21.25ZM20 33.75C19.6292 33.75 19.2666 33.64 18.9583 33.434C18.65 33.228 18.4096 32.9351 18.2677 32.5925C18.1258 32.2499 18.0887 31.8729 18.161 31.5092C18.2334 31.1455 18.412 30.8114 18.6742 30.5492C18.9364 30.287 19.2705 30.1084 19.6342 30.036C19.9979 29.9637 20.3749 30.0008 20.7175 30.1427C21.0601 30.2846 21.353 30.525 21.559 30.8333C21.765 31.1416 21.875 31.5042 21.875 31.875C21.875 32.3723 21.6775 32.8492 21.3258 33.2008C20.9742 33.5525 20.4973 33.75 20 33.75ZM20 27.5C19.6292 27.5 19.2666 27.39 18.9583 27.184C18.65 26.978 18.4096 26.6851 18.2677 26.3425C18.1258 25.9999 18.0887 25.6229 18.161 25.2592C18.2334 24.8955 18.412 24.5614 18.6742 24.2992C18.9364 24.037 19.2705 23.8584 19.6342 23.786C19.9979 23.7137 20.3749 23.7508 20.7175 23.8927C21.0601 24.0346 21.353 24.275 21.559 24.5833C21.765 24.8916 21.875 25.2542 21.875 25.625C21.875 26.1223 21.6775 26.5992 21.3258 26.9508C20.9742 27.3025 20.4973 27.5 20 27.5ZM20 21.25C19.6292 21.25 19.2666 21.14 18.9583 20.934C18.65 20.728 18.4096 20.4351 18.2677 20.0925C18.1258 19.7499 18.0887 19.3729 18.161 19.0092C18.2334 18.6455 18.412 18.3114 18.6742 18.0492C18.9364 17.787 19.2705 17.6084 19.6342 17.536C19.9979 17.4637 20.3749 17.5008 20.7175 17.6427C21.0601 17.7846 21.353 18.025 21.559 18.3333C21.765 18.6416 21.875 19.0042 21.875 19.375C21.875 19.8723 21.6775 20.3492 21.3258 20.7008C20.9742 21.0525 20.4973 21.25 20 21.25ZM28.75 31.875C28.75 32.3723 28.5525 32.8492 28.2008 33.2008C27.8492 33.5525 27.3723 33.75 26.875 33.75C26.3777 33.75 25.9008 33.5525 25.5492 33.2008C25.1975 32.8492 25 32.3723 25 31.875V25.625C25 25.1277 25.1975 24.6508 25.5492 24.2992C25.9008 23.9475 26.3777 23.75 26.875 23.75C27.3723 23.75 27.8492 23.9475 28.2008 24.2992C28.5525 24.6508 28.75 25.1277 28.75 25.625V31.875ZM26.875 21.25C26.5042 21.25 26.1416 21.14 25.8333 20.934C25.525 20.728 25.2846 20.4351 25.1427 20.0925C25.0008 19.7499 24.9637 19.3729 25.036 19.0092C25.1084 18.6455 25.287 18.3114 25.5492 18.0492C25.8114 17.787 26.1455 17.6084 26.5092 17.536C26.8729 17.4637 27.2499 17.5008 27.5925 17.6427C27.9351 17.7846 28.228 18.025 28.434 18.3333C28.64 18.6416 28.75 19.0042 28.75 19.375C28.75 19.8723 28.5525 20.3492 28.2008 20.7008C27.8492 21.0525 27.3723 21.25 26.875 21.25ZM28.3836 13.3836C28.1493 13.618 27.8315 13.7498 27.5 13.75H12.5C12.1685 13.75 11.8505 13.6183 11.6161 13.3839C11.3817 13.1495 11.25 12.8315 11.25 12.5V7.5C11.25 7.16848 11.3817 6.85054 11.6161 6.61612C11.8505 6.3817 12.1685 6.25 12.5 6.25H27.5C27.8315 6.25 28.1495 6.3817 28.3839 6.61612C28.6183 6.85054 28.75 7.16848 28.75 7.5V12.5C28.7498 12.8315 28.618 13.1493 28.3836 13.3836Z" fill="#D8D8D8"/>
</svg>
