<svg width="80" height="80" viewBox="0 0 80 80" fill="none" xmlns="http://www.w3.org/2000/svg">
<g clip-path="url(#clip0_58_512)">
<path d="M2.98828 83.2173C3.03272 79.3624 4.0489 75.5811 5.94276 72.2232C7.93996 68.7312 10.8189 65.8247 14.2917 63.7942C17.7645 61.7638 21.7095 60.6807 25.7322 60.653C33.8461 60.6716 41.5265 65.156 45.5216 72.2232C47.4144 75.5792 48.4306 79.3583 48.476 83.2111M60.9877 8.29626V3.21729M78.3243 14.5335L82.4804 11.6162M43.6386 14.5335L39.4763 11.6162M25.726 49.8633C27.2609 49.8989 28.7875 49.6273 30.2161 49.0645C31.6446 48.5017 32.9462 47.659 34.0444 46.586C35.1426 45.513 36.0152 44.2313 36.611 42.8162C37.2068 41.4011 37.5137 39.8812 37.5137 38.3458C37.5137 36.8104 37.2068 35.2905 36.611 33.8754C36.0152 32.4604 35.1426 31.1786 34.0444 30.1056C32.9462 29.0326 31.6446 28.1899 30.2161 27.6271C28.7875 27.0643 27.2609 26.7927 25.726 26.8283C22.7176 26.8981 19.8559 28.1422 17.7529 30.2945C15.6499 32.4469 14.4725 35.3366 14.4725 38.3458C14.4725 41.355 15.6499 44.2448 17.7529 46.3971C19.8559 48.5495 22.7176 49.7935 25.726 49.8633ZM73.5798 31.0587C73.5693 29.3825 73.2278 27.7248 72.5749 26.1809C71.922 24.637 70.9705 23.2372 69.7752 22.062C68.5798 20.8868 67.1641 19.9593 65.6093 19.3327C64.0546 18.7062 62.3913 18.3929 60.7151 18.4108C59.0396 18.4628 57.3908 18.8452 55.8634 19.5362C54.3361 20.2271 52.9603 21.213 51.815 22.4371C50.6697 23.6612 49.7775 25.0995 49.1896 26.6694C48.6018 28.2393 48.3298 29.9099 48.3893 31.5852C48.5127 33.8253 49.2217 35.9939 50.4456 37.8742C51.6694 39.7546 53.3652 41.2808 55.3636 42.3006V48.4945C55.3749 48.8587 55.5271 49.2044 55.7882 49.4586C56.0494 49.7128 56.399 49.8557 56.7634 49.8571H65.1933C65.5588 49.8573 65.91 49.7151 66.1725 49.4607C66.4349 49.2064 66.588 48.8598 66.5993 48.4945V42.1891C68.6597 41.1368 70.3971 39.5466 71.6271 37.5871C72.8571 35.6276 73.5278 33.3717 73.5798 31.0587Z" stroke="#FF7F3E" stroke-width="5" stroke-linecap="round" stroke-linejoin="round"/>
</g>
<defs>
<clipPath id="clip0_58_512">
<rect width="80" height="80" fill="white"/>
</clipPath>
</defs>
</svg>
