<svg width="24" height="28" viewBox="0 0 24 28" fill="none" xmlns="http://www.w3.org/2000/svg">
<path d="M22.2857 2H1.70893C0.766071 2 0 2.77679 0 3.73036V24.2696C0 25.2232 0.766071 26 1.70893 26H22.2857C23.2286 26 24 25.2232 24 24.2696V3.73036C24 2.77679 23.2286 2 22.2857 2ZM7.25357 22.5714H3.69643V11.1179H7.25893V22.5714H7.25357ZM5.475 9.55357C4.33393 9.55357 3.4125 8.62679 3.4125 7.49107C3.4125 6.35536 4.33393 5.42857 5.475 5.42857C6.61071 5.42857 7.5375 6.35536 7.5375 7.49107C7.5375 8.63214 6.61607 9.55357 5.475 9.55357ZM20.5875 22.5714H17.0304V17C17.0304 15.6714 17.0036 13.9625 15.1821 13.9625C13.3286 13.9625 13.0446 15.4089 13.0446 16.9036V22.5714H9.4875V11.1179H12.9V12.6821H12.9482C13.425 11.7821 14.5875 10.8339 16.3179 10.8339C19.9179 10.8339 20.5875 13.2071 20.5875 16.2929V22.5714Z" fill="#D8D8D8"/>
</svg>
