<svg width="80" height="80" viewBox="0 0 80 80" fill="none" xmlns="http://www.w3.org/2000/svg">
<path d="M76.5332 24.6798L55.3198 3.46649C55.0073 3.15404 54.5834 2.97852 54.1415 2.97852C53.6996 2.97852 53.2757 3.15404 52.9632 3.46649L3.46649 52.9632C3.15404 53.2757 2.97852 53.6996 2.97852 54.1415C2.97852 54.5834 3.15404 55.0073 3.46649 55.3198L24.6798 76.5332C24.9924 76.8456 25.4162 77.0211 25.8582 77.0211C26.3001 77.0211 26.7239 76.8456 27.0365 76.5332L37.6365 65.9332L37.6432 65.9265L47.0665 56.5032H47.0698V56.4965L56.4998 47.0732L65.9265 37.6432L76.5332 27.0365C76.8456 26.7239 77.0211 26.3001 77.0211 25.8582C77.0211 25.4162 76.8456 24.9924 76.5332 24.6798ZM64.7498 34.1065L58.8565 28.2165L58.8332 28.1932C58.5161 27.8911 58.0929 27.7259 57.6551 27.7334C57.2173 27.7409 56.7999 27.9203 56.4934 28.233C56.1868 28.5457 56.0156 28.9665 56.0168 29.4044C56.018 29.8423 56.1915 30.2622 56.4998 30.5732L62.3932 36.4632L55.3198 43.5365L44.7132 32.9298L44.6898 32.9065C44.3728 32.6044 43.9496 32.4393 43.5118 32.4467C43.0739 32.4542 42.6566 32.6337 42.35 32.9464C42.0435 33.2591 41.8723 33.6799 41.8735 34.1178C41.8747 34.5557 42.0482 34.9755 42.3565 35.2865L52.9632 45.8932L45.8932 52.9632L39.9998 47.0698C39.6855 46.7662 39.2645 46.5982 38.8275 46.602C38.3905 46.6058 37.9725 46.7811 37.6635 47.0901C37.3544 47.3991 37.1792 47.8172 37.1754 48.2542C37.1716 48.6912 37.3396 49.1122 37.6432 49.4265L43.5332 55.3198L36.4665 62.3932L25.8565 51.7832L25.8332 51.7598C25.6777 51.603 25.4925 51.4786 25.2885 51.3939C25.0846 51.3092 24.8658 51.2659 24.6449 51.2665C24.424 51.2671 24.2055 51.3116 24.002 51.3974C23.7984 51.4832 23.614 51.6087 23.4594 51.7664C23.3047 51.9241 23.183 52.111 23.1012 52.3162C23.0195 52.5213 22.9793 52.7407 22.9831 52.9616C22.9868 53.1824 23.0345 53.4003 23.1232 53.6026C23.2119 53.8048 23.3399 53.9875 23.4998 54.1398L34.1065 64.7498L25.8565 72.9965L7.00316 54.1398L54.1398 7.00316L72.9998 25.8598L64.7498 34.1065Z" fill="#FF7F3E"/>
</svg>
