<svg width="88" height="120" viewBox="0 0 88 120" fill="none" xmlns="http://www.w3.org/2000/svg">
<path d="M0.403438 47.8146L0.55669 95.6803L20.9903 107.328C32.1777 113.764 41.8836 119.383 42.5477 119.792C43.6205 120.507 44.6933 119.996 65.6888 107.992L87.6549 95.3738V47.7125V0H43.9781H0.30127L0.403438 47.8146ZM85.3561 48.2233V94.1478L64.9225 105.795C53.684 112.232 44.1824 117.493 43.8248 117.493C43.4672 117.493 40.1468 115.756 36.4177 113.611C32.6885 111.465 23.5445 106.255 16.0351 102.015L2.39571 94.25L2.34463 48.1211V2.04336L43.8759 2.14552L85.3561 2.29878V48.2233Z" fill="#4B5945"/>
<path d="M11.2843 6.18116L14.3493 7.6626L44.2335 7.61151H74.1176L76.9272 6.13008L79.7368 4.64864H43.978L8.21924 4.69973L11.2843 6.18116Z" fill="#4B5945"/>
<path d="M20.7349 10.4721C20.7349 10.5743 21.8587 11.2895 23.2891 12.0046L25.7922 13.2817H44.0802L62.3683 13.2307L65.1779 11.7492L67.9876 10.2678L44.3868 10.2167C31.3603 10.2167 20.7349 10.3189 20.7349 10.4721Z" fill="#4B5945"/>
<path d="M36.8768 15.5807C36.7236 16.0915 35.9062 16.3469 34.6802 16.3469L32.739 16.398L34.2716 17.2154C36.2638 18.2881 36.366 18.4414 36.5192 21.5064C36.6214 23.7541 36.4682 24.1117 35.5997 24.3671C34.1183 24.7247 34.2716 25.491 35.8041 25.7975C36.5192 25.9507 37.6431 26.1551 38.3583 26.3083C39.0734 26.4616 39.5332 26.8192 39.38 27.0746C39.1756 27.3811 36.1617 27.5854 32.3814 27.5854C26.7111 27.5854 25.2297 27.7387 22.5733 28.7093L19.4572 29.8842L29.061 30.1396C34.3226 30.2929 38.6137 30.5483 38.6137 30.7526C38.6137 31.0081 38.6137 31.6211 38.6137 32.183C38.6137 33.2047 38.2561 33.2047 24.7699 33.2047C11.8457 33.2047 10.6707 33.3068 7.91221 34.2774C6.22644 34.8904 4.89825 35.6056 4.89825 35.81C4.89825 36.0654 12.3565 36.2697 21.5006 36.2697C31.2576 36.2697 38.1029 36.474 38.1029 36.7295C38.1029 38.8239 38.2561 38.8239 21.194 38.8239H4.89825V40.3564V41.889H20.9897C37.5409 41.889 37.8474 41.94 36.6725 43.8301C36.3149 44.341 32.739 44.4942 20.6832 44.5964L5.15367 44.6986L5.00042 46.0778L4.84717 47.5082H20.4789H36.1106L35.9573 48.8875L35.8041 50.3178L20.3256 50.4711L4.84717 50.5732L5.00042 52.0036L5.15367 53.3829L15.8813 53.3318C21.8581 53.3318 28.0393 53.0253 29.8272 52.6677C33.6585 51.9525 37.9496 52.5655 42.0363 54.4045C43.4667 55.0175 44.8459 55.3751 45.1014 55.1708C45.9698 54.4045 51.2314 52.7188 53.9389 52.4123C55.6247 52.2079 58.1789 52.3612 60.3755 52.7698C63.9514 53.4339 81.5753 53.9448 82.4949 53.4339C82.6992 53.2807 82.8014 52.5655 82.6481 51.8503L82.4438 50.5732H67.4762C54.2965 50.5732 52.4575 50.4711 52.202 49.7559C51.3336 47.4571 51.0271 47.5082 67.1696 47.5082H82.4438L82.6481 46.2311C82.8014 45.567 82.8014 44.8518 82.6481 44.6986C82.4949 44.5453 75.4453 44.4432 67.0675 44.4432C54.9606 44.4942 51.6401 44.341 51.3336 43.8301C50.1076 41.94 50.4141 41.889 66.7099 41.889H82.5459V40.3564V38.8239H66.5056H50.4652L50.2608 37.5468L50.0054 36.2697H66.3012C83.5676 36.2697 84.998 36.0654 79.6852 34.1753C77.5397 33.409 75.0877 33.2558 63.2873 33.2558C51.589 33.2047 49.3413 33.1025 49.3413 32.4895C49.3413 32.0808 49.1881 31.4167 49.0348 30.957C48.7794 30.2418 49.8011 30.1396 58.5875 30.1396L68.4978 30.0885L65.4839 28.8625C62.7764 27.7387 61.7037 27.5854 55.6757 27.5854C49.0859 27.5854 46.3274 26.9213 50.2098 26.3083C51.2825 26.104 52.4575 25.8997 52.815 25.7975C53.8367 25.4399 53.5302 24.5204 52.4064 24.5204C51.4869 24.5204 51.3847 24.1628 51.3847 21.4553V18.3903L53.5813 17.2665L55.7268 16.0915L53.3259 15.9383C51.9466 15.8361 50.8739 15.5807 50.8739 15.2742C50.8739 15.0188 48.0131 14.8144 44.0286 14.8144C38.4094 14.8144 37.1323 14.9677 36.8768 15.5807ZM43.1091 21.0467L42.9558 24.265H40.9125H38.9202L38.818 21.4553C38.7669 19.9228 38.818 18.4925 38.9713 18.2371C39.0734 18.0327 40.0951 17.8795 41.219 17.8795H43.2623L43.1091 21.0467ZM48.8305 21.251V24.5715L46.9404 24.4182L44.9992 24.265L44.9481 21.0467V17.8795H46.8893H48.8305V21.251Z" fill="#4B5945"/>
<path d="M27.1206 54.8132C16.6484 58.338 10.2629 68.3505 12.0509 78.6184C13.5834 87.4048 19.7646 94.0458 28.3467 96.038C32.2801 96.9575 37.8483 96.4467 41.5263 94.7609L44.5403 93.4327L47.5542 94.8631C50.3128 96.1402 51.1812 96.2934 55.9831 96.2934C60.5807 96.2934 61.7556 96.0891 64.1565 95.0674C72.3811 91.3894 77.4384 83.9822 77.4384 75.4001C77.4384 67.1756 72.7897 59.7684 65.1782 56.0393C62.0621 54.5067 61.5513 54.4046 56.2385 54.4046C51.1812 54.4046 50.3128 54.5578 47.6564 55.7838L44.6935 57.1631L41.7818 55.886C38.257 54.2513 30.4922 53.6894 27.1206 54.8132ZM39.8406 56.2436C41.4242 56.8055 42.8034 57.4696 42.9056 57.6739C43.0589 57.9294 42.1393 59.2065 40.8112 60.5346C33.7105 67.9418 32.9442 79.589 38.9721 87.9668C39.9427 89.2949 41.3731 90.8785 42.0883 91.4916C43.4164 92.5132 43.4675 92.5643 42.4458 93.2795C38.7167 96.038 29.6238 96.2424 24.5154 93.7392C18.5385 90.8275 14.0942 84.7995 13.0215 78.2097C11.4889 68.7081 17.6701 58.8489 27.0185 55.9371C30.4411 54.8643 36.5712 55.0176 39.8406 56.2436ZM64.3098 56.8055C68.3965 58.6956 72.4832 62.7823 74.5266 66.8691C76.008 69.9341 76.1613 70.5982 76.1613 75.0936C76.1102 81.3769 74.8842 84.6463 70.9507 88.8863C67.0173 93.1773 62.8794 95.1185 57.2602 95.425C53.0713 95.6294 50.9769 95.2718 47.401 93.6371L45.7152 92.8197L48.2694 90.2145C56.3918 81.6323 56.3918 69.1168 48.3205 60.5857C46.6858 58.8489 45.9196 57.6739 46.2771 57.4696C50.6193 54.7621 59.2525 54.4556 64.3098 56.8055ZM47.4521 61.0455C48.7292 62.2715 50.5171 64.8768 51.4877 66.7669C53.0713 69.9852 53.1735 70.5471 53.1735 75.349C53.1735 80.0998 53.0713 80.7128 51.5388 83.7779C50.6193 85.6169 48.7803 88.2222 47.3499 89.6014L44.7957 92.1046L42.9567 90.6742C40.6579 88.9374 38.0526 84.9528 36.8266 81.2748C35.4984 77.2902 35.9071 70.7004 37.695 66.818C39.0743 63.804 43.3654 58.7467 44.4892 58.7467C44.8468 58.7467 46.175 59.7684 47.4521 61.0455Z" fill="#4B5945"/>
<path d="M19.7129 75.3491V80.7129H22.9312C27.7331 80.7129 29.4188 78.7717 28.7548 73.9187C28.3461 70.9048 27.0179 69.9852 22.9823 69.9852H19.7129V75.3491ZM25.7408 72.6416C26.5581 73.459 26.5581 77.2392 25.7408 78.0565C25.3832 78.4141 24.3615 78.6695 23.442 78.6695H21.7563V75.3491V72.0286H23.442C24.3615 72.0286 25.3832 72.284 25.7408 72.6416Z" fill="#4B5945"/>
<path d="M61.7549 69.9852C60.0181 70.7004 58.9453 72.7437 58.9453 75.4001C58.9453 79.6401 61.806 81.9388 65.6884 80.7639C67.272 80.3042 68.7534 78.6695 68.7534 77.3924C68.7534 76.7283 66.5568 77.2902 65.6884 78.1586C65.1265 78.7205 64.3091 79.1803 63.9005 79.1803C62.5212 79.1803 61.0908 77.2391 61.0908 75.349C61.0908 73.3567 62.5212 71.5177 64.0537 71.5177C64.6156 71.5177 65.433 71.9775 65.9438 72.5394C67.0166 73.7143 68.7534 73.9187 68.7534 72.8459C68.7534 70.5471 64.5135 68.8103 61.7549 69.9852Z" fill="#4B5945"/>
<path d="M41.2703 70.2915C40.5041 70.8023 40.1465 71.5686 40.1465 72.7946C40.1465 74.7358 40.453 74.9912 43.7224 76.1662C45.3571 76.7281 46.0211 77.2389 46.0211 77.9541C46.0211 79.2823 43.9267 79.5377 42.5474 78.3117C41.4236 77.3411 40.1465 77.0346 40.1465 77.7498C40.1465 78.0052 40.1465 78.516 40.1465 78.9247C40.1465 79.3844 40.9127 80.0996 41.8833 80.5083C45.5103 82.2452 49.6481 79.8953 48.5243 76.7281C48.1667 75.7064 47.4515 75.1445 45.6125 74.5315C42.8539 73.612 41.9344 72.8968 42.3942 72.0794C42.905 71.2621 45.0505 71.4153 45.7657 72.2838C46.532 73.2033 48.3199 73.3055 48.3199 72.3859C48.2688 69.9339 43.7224 68.5546 41.2703 70.2915Z" fill="#4B5945"/>
<path d="M4.89893 57.7248V59.2573H10.9268C16.8015 59.2062 16.9547 59.2062 18.6916 57.7248L20.4285 56.1923H12.6637H4.89893V57.7248Z" fill="#4B5945"/>
<path d="M71.2058 57.7248C72.7894 59.2062 73.0448 59.2573 77.6935 59.2573H82.5464V57.7248V56.1923H76.0588L69.52 56.2434L71.2058 57.7248Z" fill="#4B5945"/>
<path d="M4.89893 63.3444V64.877H8.88348C12.7659 64.877 12.868 64.8259 13.7365 63.3444L14.656 61.8119H9.80299H4.89893V63.3444Z" fill="#4B5945"/>
<path d="M75.395 62.4249C75.4461 64.1107 76.7743 64.877 79.5839 64.877C81.1164 64.877 82.4957 64.7748 82.6489 64.6215C82.8022 64.4683 82.8022 63.7531 82.6489 63.089C82.4446 61.863 82.2403 61.8119 78.9198 61.8119C76.4167 61.8119 75.395 62.0162 75.395 62.4249Z" fill="#4B5945"/>
<path d="M4.89893 69.219C4.89893 70.445 5.05218 70.4961 7.96397 70.4961C9.64974 70.4961 11.029 70.2918 11.029 70.0363C11.029 69.7809 11.1823 69.219 11.3355 68.7592C11.5909 68.0441 11.1312 67.9419 8.27047 67.9419C5.00109 67.9419 4.89893 67.993 4.89893 69.219Z" fill="#4B5945"/>
<path d="M78.1528 68.7592C78.306 69.219 78.4593 69.7809 78.4593 70.0363C78.4593 70.2918 79.3788 70.4961 80.5026 70.4961C82.3417 70.4961 82.546 70.3428 82.546 69.219C82.546 68.0441 82.3417 67.9419 80.1961 67.9419C78.2549 67.9419 77.8974 68.0951 78.1528 68.7592Z" fill="#4B5945"/>
<path d="M5.00109 83.1135L5.15435 92.6152L23.8 103.343C34.0679 109.217 42.8543 114.122 43.3141 114.275C43.8249 114.428 51.8451 110.188 63.339 103.649L82.4955 92.7173L82.5466 83.1135V73.5608H80.7587C79.0218 73.5608 78.9707 73.6119 78.9707 75.502C78.9707 78.3627 77.6426 83.0625 75.8035 86.3829C70.593 96.2421 58.2817 100.584 47.7584 96.3443L44.6934 95.1183L41.8837 96.3954C39.9426 97.2638 37.797 97.7747 35.0896 97.9279C27.9889 98.4387 21.961 96.2421 17.1591 91.4402C13.43 87.7111 11.1823 83.2157 10.416 77.6476L9.80299 73.5608H7.35096H4.89893L5.00109 83.1135Z" fill="#4B5945"/>
</svg>
