<svg width="121" height="120" viewBox="0 0 121 120" fill="none" xmlns="http://www.w3.org/2000/svg">
<path d="M59.9495 109.625C45.4495 107.458 33.9495 101.853 25.4495 92.81C16.9495 83.7667 12.1162 71.455 10.9495 55.875C10.8662 54.9583 10.9712 54.145 11.2645 53.435C11.5579 52.725 11.9529 52.1217 12.4495 51.625C12.9462 51.1283 13.5512 50.7533 14.2645 50.5C14.9779 50.2467 15.7479 50.205 16.5745 50.375C31.8245 52.4583 43.5745 58.3333 51.8245 68C60.0745 77.6667 64.6579 89.75 65.5745 104.25C65.6579 105 65.5545 105.73 65.2645 106.44C64.9745 107.15 64.5362 107.753 63.9495 108.25C63.4495 108.75 62.8445 109.147 62.1345 109.44C61.4245 109.733 60.6962 109.795 59.9495 109.625ZM60.6995 63.125C59.5329 61.2917 56.8462 58.605 52.6395 55.065C48.4329 51.525 44.8695 49.17 41.9495 48C42.6162 43.8333 44.3045 38.5633 47.0145 32.19C49.7245 25.8167 52.9529 20.045 56.6995 14.875C57.1995 14.2083 57.8045 13.7083 58.5145 13.375C59.2245 13.0417 59.9529 12.875 60.6995 12.875C61.4462 12.875 62.1545 13.0417 62.8245 13.375C63.4945 13.7083 64.0779 14.25 64.5745 15C68.3245 20.25 71.5962 26 74.3895 32.25C77.1829 38.5 78.8695 43.75 79.4495 48C76.1995 49.5 72.5745 51.9383 68.5745 55.315C64.5745 58.6917 61.9495 61.295 60.6995 63.125ZM75.4495 106C75.2829 100.917 74.5129 95.1467 73.1395 88.69C71.7662 82.2333 69.6195 76.67 66.6995 72C70.2829 66.5 75.5962 61.75 82.6395 57.75C89.6829 53.75 97.1195 51.2917 104.95 50.375C105.783 50.2083 106.533 50.2717 107.2 50.565C107.866 50.8583 108.45 51.2533 108.95 51.75C109.45 52.2467 109.846 52.83 110.14 53.5C110.433 54.17 110.536 54.92 110.45 55.75C109.783 69.1667 106.138 80.0633 99.5145 88.44C92.8912 96.8167 84.8695 102.67 75.4495 106Z" fill="#4B5945"/>
</svg>
