<svg width="121" height="120" viewBox="0 0 121 120" fill="none" xmlns="http://www.w3.org/2000/svg">
<g clip-path="url(#clip0_58_341)">
<path d="M60.6992 4.31641C27.3992 4.31641 0.699219 31.2489 0.699219 64.9014C0.699219 69.8814 0.894219 71.7751 1.92922 76.5414L20.2292 90.0977L23.0792 112.676H53.5855L55.228 113.809C57.103 115.118 58.7455 115.684 60.6392 115.684C62.398 115.684 64.2917 115.178 65.758 114.12L67.7117 112.676H98.1805L100.993 90.0977L119.469 76.5414C120.504 71.7751 120.699 69.8814 120.699 64.9014C120.699 31.2677 93.9992 4.31641 60.6992 4.31641ZM65.6792 15.6039C70.1717 15.6039 74.5667 16.7177 78.238 18.8477L65.9155 81.5814L83.0267 21.2889C88.318 23.0852 92.323 25.9764 95.5667 30.3527L95.683 30.5289L71.173 83.5952L99.0242 35.0402L99.2005 35.1752C102.988 38.7114 105.429 43.0089 106.663 48.4164L75.688 86.7564L107.874 54.2552L107.912 54.3527C109.183 57.1652 110 61.1514 110 64.3314C110 66.8702 109.884 67.8864 109.179 70.5827L91.4042 83.5914L89.0792 102.146H66.6955L64.1155 104.119C63.118 104.899 61.693 105.446 60.6992 105.446C59.7055 105.446 58.2767 104.899 57.283 104.119L54.703 102.146H32.3005L30.0917 84.0977L11.9455 70.7589C11.4095 68.7057 11.1398 66.5921 11.143 64.4702C11.143 60.8552 11.9455 57.0077 13.273 54.1952L13.333 54.0789L45.598 86.8314L14.4467 48.1014C15.6955 42.7877 18.823 37.6539 22.6517 34.5264L50.368 83.4114L25.603 30.5027C28.378 26.4189 32.848 23.2164 38.3192 21.3602L55.4492 81.7127L42.4817 19.0764L42.7555 18.9189C46.8167 16.6727 50.743 15.6377 55.0405 15.6377C56.0155 15.6377 56.4655 15.6564 57.6767 15.7952L60.6055 81.0489L62.9117 15.7352C64.0255 15.6189 64.453 15.6002 65.6867 15.6002L65.6792 15.6039Z" fill="#4B5945"/>
</g>
<defs>
<clipPath id="clip0_58_341">
<rect width="120" height="120" fill="white" transform="translate(0.699219)"/>
</clipPath>
</defs>
</svg>
