<svg width="121" height="120" viewBox="0 0 121 120" fill="none" xmlns="http://www.w3.org/2000/svg">
<path d="M51.3242 61.4062C34.6217 61.2394 13.5355 59.8125 1.63672 64.6875V53.4375L3.98047 42.6562L8.19922 32.3438L9.13672 31.875L10.0742 29.0625L11.0117 28.5938V27.6562L11.9492 27.1875V26.25L13.3555 25.3125V24.375L15.2305 22.9688V22.0312L18.9805 18.75L22.2617 15H23.1992L24.6055 13.125H25.543L26.0117 12.1875H26.9492L27.8867 10.7812L29.7617 10.3125L30.2305 9.375L33.043 8.4375L33.5117 7.5L35.8555 7.03125V6.5625L37.7305 6.09375V5.625L48.043 2.34375H50.3867C52.9991 1.56797 56.1523 1.40625 59.7617 1.40625C71.9788 1.40625 80.9056 3.77016 88.3555 8.4375L91.168 9.375L91.6367 10.3125L93.5117 10.7812L94.4492 12.1875H95.3867L95.8555 13.125C98.4931 14.9227 101.762 16.9247 103.355 19.6875H101.949C100.949 18.7823 97.6606 19.2188 95.8555 19.2188C90.4592 19.2188 83.0506 18.368 78.5117 19.6875L71.9492 20.1562V20.625L68.1992 21.0938V21.5625L65.3867 22.0312V22.5H64.4492V22.9688H63.043V23.4375L61.168 23.9062L60.6992 24.8438H59.7617L59.293 25.7812H58.3555L56.9492 27.6562L55.543 28.5938V29.5312L54.1367 30.4688L53.668 32.8125H53.1992V33.75H52.7305C52.3245 34.7967 51.7658 43.372 52.2617 45H52.7305V46.875H53.1992L54.6055 53.4375C58.1 61.4934 65.5836 76.6927 58.8242 86.25L56.9492 87.6562L55.0742 90H54.1367L53.668 90.9375C49.9963 93.2639 39.6411 96.0056 33.5117 94.2188H30.2305V93.75H28.3555V93.2812H26.4805V92.8125H25.0742V92.3438H24.1367V91.875H22.7305V91.4062H21.793V90.9375H20.8555L20.3867 90H19.4492L18.5117 88.5938H17.5742L17.1055 87.1875L15.6992 86.25V85.3125H15.2305V83.9062C13.9269 80.3063 15.5403 78.7069 16.168 75.9375L18.043 74.5312V74.0625H18.9805L19.4492 73.125L26.0117 70.7812L40.543 70.3125C45.2516 68.8763 50.2789 66.4688 51.3242 61.4062ZM97.2617 29.0625L96.793 30.4688H96.3242V31.4062H95.8555V32.3438H95.3867V33.2812H94.918V34.2188H94.4492V35.1562C93.2305 37.4386 91.0808 40.1077 90.6992 43.125H111.793L116.012 39.375V39.8438H116.48L116.949 42.6562H117.418V44.0625H117.887V45.9375H118.355V47.8125H118.824V50.625C121.438 59.6339 119.16 72.4383 116.48 79.2188L116.012 82.0312C108.378 99.3998 95.6286 110.677 77.1055 117.188H75.2305V117.656H73.3555V118.125H70.543C61.4797 120.75 48.2816 118.512 41.4805 115.781H40.0742V115.312H39.1367V114.844L33.5117 112.969L33.043 112.031L30.2305 111.094V110.625L28.8242 110.156L28.3555 109.219H27.418L26.9492 108.281H26.0117L25.0742 106.875H24.1367L23.1992 105.469H22.2617L19.4492 102.188H20.3867C21.8698 103.543 25.1 102.492 27.418 103.125C32.1767 104.425 46.1952 103.891 50.3867 102.656L55.543 102.188V101.719L59.293 101.25V100.781H60.6992V100.312H62.1055V99.8438H63.5117V99.375H64.918V98.9062H66.3242V98.4375L68.1992 97.9688V97.5L70.0742 97.0312V96.5625H71.0117V96.0938H71.9492V95.625H72.8867L73.3555 94.6875H74.293L74.7617 93.75H75.6992L77.1055 91.875H78.043L79.4492 90H79.918V89.0625L81.793 87.6562L82.2617 85.7812L83.1992 85.3125L83.668 82.9688H84.1367V82.0312H84.6055V80.1562C86.1162 75.5194 85.543 69.8827 84.1367 65.625V63.75H83.668V62.3438H83.1992V60.9375H82.7305V59.5312H82.2617V58.125H81.793L81.3242 55.3125H80.8555V54.375H80.3867L79.918 52.0312H79.4492L78.9805 49.2188H78.5117V48.2812H78.043V46.875H77.5742V45.4688H77.1055V44.0625H76.6367V42.6562C75.9463 40.9036 74.2517 37.3894 75.2305 34.2188H75.6992L76.168 31.875C77.3867 31.2131 78.5586 29.9883 79.918 29.5312H82.7305C86.4866 28.4423 92.6872 29.0625 97.2617 29.0625Z" fill="#4B5945"/>
</svg>
