<svg width="121" height="120" viewBox="0 0 121 120" fill="none" xmlns="http://www.w3.org/2000/svg">
<path d="M44.5483 30.3467L27.855 38.1334L28.015 41.8134L28.1216 45.4401L44.6016 56.3734L61.0816 67.2534L60.815 62.8268C60.5483 58.5601 60.4416 58.1334 56.2283 49.7601C53.8283 44.9601 51.855 40.9601 51.855 40.8001C51.855 40.6401 54.3616 40.5334 57.4016 40.5334H62.895L66.6283 46.1334L70.3616 51.7868L72.4417 46.2934L74.5216 40.8001L81.2416 40.6401L87.9083 40.4801L87.695 45.1201L87.4283 49.7068L91.7483 46.6134L96.0683 43.4668L96.1217 40.2134V36.9601L79.6417 29.7067C70.575 25.6534 62.6816 22.4001 62.1483 22.4534C61.615 22.5068 53.6683 26.0267 44.5483 30.3467Z" fill="#4B5945"/>
<path d="M45.833 74.9998H48.143L44.615 84.7998H41.913L38.385 74.9998H40.709L43.271 82.6018L45.833 74.9998ZM52.4729 84.8978C51.7543 84.8978 51.1289 84.7485 50.5969 84.4498C50.0649 84.1418 49.6496 83.7125 49.3509 83.1618C49.0616 82.6111 48.9169 81.9671 48.9169 81.2298C48.9169 80.5485 49.0616 79.9418 49.3509 79.4098C49.6403 78.8778 50.0463 78.4625 50.5689 78.1638C51.0916 77.8558 51.6843 77.7018 52.3469 77.7018C53.0469 77.7018 53.6536 77.8465 54.1669 78.1358C54.6803 78.4158 55.0816 78.8171 55.3709 79.3398C55.6603 79.8625 55.8049 80.4691 55.8049 81.1598C55.8049 81.2718 55.8003 81.3885 55.7909 81.5098C55.7816 81.6311 55.7676 81.7665 55.7489 81.9158H51.1009C51.1476 82.1678 51.2363 82.3871 51.3669 82.5738C51.4976 82.7511 51.6609 82.8911 51.8569 82.9938C52.0623 83.0871 52.2956 83.1338 52.5569 83.1338C52.8463 83.1338 53.1076 83.0731 53.3409 82.9518C53.5743 82.8305 53.7469 82.6578 53.8589 82.4338L55.6929 82.9378C55.4129 83.5631 54.9929 84.0485 54.4329 84.3938C53.8729 84.7298 53.2196 84.8978 52.4729 84.8978ZM53.5789 80.5858C53.5696 80.3525 53.5089 80.1471 53.3969 79.9698C53.2849 79.7925 53.1403 79.6525 52.9629 79.5498C52.7856 79.4471 52.5896 79.4005 52.3749 79.4098C52.1603 79.4191 51.9643 79.4751 51.7869 79.5778C51.6189 79.6711 51.4743 79.8065 51.3529 79.9838C51.2316 80.1518 51.1569 80.3525 51.1289 80.5858H53.5789ZM57.0452 77.7998H58.9072L59.0472 78.7238C59.2246 78.4811 59.4346 78.2805 59.6772 78.1218C59.9292 77.9538 60.2046 77.8418 60.5032 77.7858C60.8112 77.7298 61.1472 77.7345 61.5112 77.7998V79.7318C61.2686 79.6478 61.0072 79.6245 60.7272 79.6618C60.4472 79.6898 60.1812 79.7831 59.9292 79.9418C59.6772 80.0911 59.4719 80.3151 59.3132 80.6138C59.1639 80.9125 59.0892 81.2905 59.0892 81.7478V84.7998H57.0452V77.7998ZM65.7893 84.8978C65.108 84.8978 64.4967 84.7531 63.9553 84.4638C63.414 84.1745 62.9893 83.7591 62.6813 83.2178C62.3827 82.6765 62.2333 82.0371 62.2333 81.2998C62.2333 80.5625 62.3873 79.9278 62.6953 79.3958C63.0127 78.8545 63.442 78.4391 63.9833 78.1498C64.534 77.8511 65.1453 77.7018 65.8173 77.7018C66.508 77.7018 67.124 77.8511 67.6653 78.1498C68.216 78.4391 68.65 78.8545 68.9673 79.3958C69.2847 79.9278 69.4433 80.5578 69.4433 81.2858C69.4433 82.0325 69.28 82.6765 68.9533 83.2178C68.636 83.7591 68.1973 84.1745 67.6373 84.4638C67.0867 84.7531 66.4707 84.8978 65.7893 84.8978ZM65.7893 83.0498C66.032 83.0498 66.2653 82.9845 66.4893 82.8538C66.7133 82.7231 66.8907 82.5318 67.0213 82.2798C67.1613 82.0185 67.2313 81.6918 67.2313 81.2998C67.2313 80.9078 67.1613 80.5858 67.0213 80.3338C66.8907 80.0725 66.718 79.8765 66.5033 79.7458C66.2887 79.6151 66.06 79.5498 65.8173 79.5498C65.556 79.5498 65.3227 79.6151 65.1173 79.7458C64.912 79.8765 64.744 80.0725 64.6133 80.3338C64.492 80.5858 64.4313 80.9078 64.4313 81.2998C64.4313 81.6918 64.492 82.0185 64.6133 82.2798C64.7347 82.5318 64.898 82.7231 65.1033 82.8538C65.3087 82.9845 65.5373 83.0498 65.7893 83.0498ZM70.6761 77.7998H72.5241L72.6641 78.5558C72.8974 78.3038 73.1728 78.0985 73.4901 77.9398C73.8074 77.7811 74.1528 77.7018 74.5261 77.7018C75.0768 77.7018 75.5388 77.8185 75.9121 78.0518C76.2948 78.2851 76.5841 78.6258 76.7801 79.0738C76.9854 79.5218 77.0881 80.0678 77.0881 80.7118V84.7998H75.0441V80.9638C75.0441 80.4971 74.9461 80.1425 74.7501 79.8998C74.5634 79.6571 74.2788 79.5358 73.8961 79.5358C73.5041 79.5358 73.2101 79.6618 73.0141 79.9138C72.8181 80.1565 72.7201 80.5111 72.7201 80.9778V84.7998H70.6761V77.7998ZM82.6108 84.7998L82.4708 83.9318C82.2281 84.2305 81.9668 84.4638 81.6868 84.6318C81.4068 84.7998 81.0288 84.8838 80.5528 84.8838C80.1234 84.8838 79.7361 84.8091 79.3908 84.6598C79.0454 84.5011 78.7701 84.2725 78.5648 83.9738C78.3688 83.6751 78.2708 83.3158 78.2708 82.8958C78.2708 82.3171 78.4761 81.8365 78.8868 81.4538C79.3068 81.0711 79.9554 80.8331 80.8328 80.7398L82.4708 80.5578V80.0958C82.4708 79.9371 82.3914 79.7831 82.2328 79.6338C82.0834 79.4751 81.8454 79.3958 81.5188 79.3958C81.2294 79.3958 80.9774 79.4705 80.7628 79.6198C80.5574 79.7691 80.4174 79.9838 80.3428 80.2638L78.5928 79.6338C78.7981 79.0085 79.1574 78.5325 79.6708 78.2058C80.1934 77.8698 80.8374 77.7018 81.6028 77.7018C82.5548 77.7018 83.2781 77.9398 83.7728 78.4158C84.2674 78.8918 84.5148 79.5311 84.5148 80.3338V84.7998H82.6108ZM82.4708 81.8178L81.1688 81.9718C80.9074 82.0091 80.7068 82.0931 80.5668 82.2238C80.4361 82.3451 80.3708 82.4991 80.3708 82.6858C80.3708 82.8631 80.4454 83.0125 80.5948 83.1338C80.7441 83.2551 80.9494 83.3158 81.2108 83.3158C81.4721 83.3158 81.6961 83.2645 81.8828 83.1618C82.0694 83.0498 82.2141 82.8958 82.3168 82.6998C82.4194 82.4945 82.4708 82.2425 82.4708 81.9438V81.8178Z" fill="#4B5945"/>
<path d="M32.7669 96.056C32.3669 96.056 31.9935 95.9867 31.6469 95.848C31.3002 95.7093 30.9962 95.5147 30.7349 95.264C30.4735 95.008 30.2682 94.7067 30.1189 94.36C29.9695 94.008 29.8949 93.6213 29.8949 93.2C29.8949 92.7787 29.9695 92.3947 30.1189 92.048C30.2682 91.696 30.4735 91.3947 30.7349 91.144C30.9962 90.888 31.3002 90.6907 31.6469 90.552C31.9935 90.4133 32.3669 90.344 32.7669 90.344C33.1615 90.344 33.5322 90.4133 33.8789 90.552C34.2309 90.6907 34.5349 90.888 34.7909 91.144C35.0522 91.3947 35.2575 91.696 35.4069 92.048C35.5562 92.3947 35.6309 92.7787 35.6309 93.2C35.6309 93.6213 35.5562 94.008 35.4069 94.36C35.2575 94.7067 35.0522 95.008 34.7909 95.264C34.5295 95.5147 34.2255 95.7093 33.8789 95.848C33.5322 95.9867 33.1615 96.056 32.7669 96.056ZM32.7669 95C33.0815 95 33.3589 94.9253 33.5989 94.776C33.8442 94.6213 34.0335 94.408 34.1669 94.136C34.3055 93.864 34.3749 93.552 34.3749 93.2C34.3749 92.8427 34.3055 92.5307 34.1669 92.264C34.0335 91.992 33.8442 91.7813 33.5989 91.632C33.3589 91.4773 33.0815 91.4 32.7669 91.4C32.4415 91.4 32.1589 91.4773 31.9189 91.632C31.6789 91.7813 31.4895 91.992 31.3509 92.264C31.2175 92.5307 31.1509 92.8427 31.1509 93.2C31.1509 93.552 31.2175 93.864 31.3509 94.136C31.4895 94.408 31.6789 94.6213 31.9189 94.776C32.1589 94.9253 32.4415 95 32.7669 95ZM36.7614 90.4H40.8334V91.432H38.0014V92.672H40.1214V93.656H38.0014V96H36.7614V90.4ZM41.9349 90.4H46.0069V91.432H43.1749V92.672H45.2949V93.656H43.1749V96H41.9349V90.4ZM47.1083 90.4H48.3483V96H47.1083V90.4ZM49.4949 93.2C49.4949 92.784 49.5642 92.4027 49.7029 92.056C49.8469 91.704 50.0442 91.4 50.2949 91.144C50.5455 90.888 50.8442 90.6907 51.1909 90.552C51.5375 90.4133 51.9135 90.344 52.3189 90.344C52.9215 90.344 53.4469 90.4907 53.8949 90.784C54.3429 91.0773 54.6682 91.488 54.8709 92.016L53.8149 92.28C53.7135 92.0667 53.5855 91.896 53.4309 91.768C53.2762 91.6347 53.1055 91.5387 52.9189 91.48C52.7322 91.416 52.5349 91.384 52.3269 91.384C52.0069 91.384 51.7269 91.464 51.4869 91.624C51.2469 91.7787 51.0602 91.992 50.9269 92.264C50.7989 92.536 50.7349 92.848 50.7349 93.2C50.7349 93.5573 50.7989 93.872 50.9269 94.144C51.0602 94.416 51.2469 94.6293 51.4869 94.784C51.7269 94.9387 52.0069 95.016 52.3269 95.016C52.5402 95.016 52.7429 94.984 52.9349 94.92C53.1322 94.856 53.3109 94.7493 53.4709 94.6C53.6362 94.4507 53.7749 94.2507 53.8869 94L54.9269 94.24C54.7135 94.832 54.3802 95.2827 53.9269 95.592C53.4735 95.9013 52.9375 96.056 52.3189 96.056C51.9135 96.056 51.5375 95.9867 51.1909 95.848C50.8442 95.7093 50.5455 95.5147 50.2949 95.264C50.0442 95.008 49.8469 94.7067 49.7029 94.36C49.5642 94.008 49.4949 93.6213 49.4949 93.2ZM60.2069 91.432H57.3749V92.672H59.4949V93.656H57.3749V94.968H60.2069V96H56.1349V90.4H60.2069V91.432ZM66.5477 91.632C66.489 91.5627 66.4144 91.5067 66.3237 91.464C66.233 91.4213 66.1184 91.4 65.9797 91.4C65.7557 91.4 65.5877 91.464 65.4757 91.592C65.3637 91.7147 65.3077 91.88 65.3077 92.088C65.3077 92.2533 65.353 92.3813 65.4437 92.472C65.5344 92.5573 65.6517 92.6187 65.7957 92.656C65.945 92.688 66.1157 92.704 66.3077 92.704H68.3797V93.656H66.3077C65.9237 93.656 65.641 93.704 65.4597 93.8C65.2837 93.8907 65.1957 94.0693 65.1957 94.336C65.1957 94.4747 65.2224 94.5947 65.2757 94.696C65.329 94.792 65.409 94.8667 65.5157 94.92C65.6224 94.9733 65.7584 95 65.9237 95C66.1957 95 66.385 94.9333 66.4917 94.8C66.6037 94.6667 66.6597 94.456 66.6597 94.168V92.968H67.8677V94.168C67.8677 94.6213 67.785 94.9867 67.6197 95.264C67.4544 95.5413 67.2224 95.744 66.9237 95.872C66.625 95.9947 66.2784 96.056 65.8837 96.056C65.4784 96.056 65.1317 95.9893 64.8437 95.856C64.561 95.7173 64.345 95.528 64.1957 95.288C64.0464 95.0427 63.9717 94.76 63.9717 94.44C63.9717 94.1947 64.0117 93.9893 64.0917 93.824C64.177 93.6533 64.2944 93.5147 64.4437 93.408C64.593 93.296 64.7637 93.208 64.9557 93.144V93.112C64.8224 93.0693 64.6864 93 64.5477 92.904C64.4144 92.8027 64.3024 92.672 64.2117 92.512C64.121 92.3467 64.0757 92.1493 64.0757 91.92C64.0757 91.6267 64.1477 91.3627 64.2917 91.128C64.4357 90.888 64.6464 90.6987 64.9237 90.56C65.201 90.416 65.5424 90.344 65.9477 90.344C66.2837 90.344 66.585 90.3947 66.8517 90.496C67.1184 90.5973 67.337 90.744 67.5077 90.936L66.5477 91.632ZM67.5077 90.936L66.5477 91.632L67.5077 90.936ZM66.3077 92.704C66.393 92.704 66.4677 92.688 66.5317 92.656C66.5957 92.624 66.6437 92.5707 66.6757 92.496C66.713 92.4213 66.7317 92.3253 66.7317 92.208V91.88H67.9077V92.704H68.7237V93.656H67.9077V94.472C67.9077 94.6587 67.9477 94.7893 68.0277 94.864C68.113 94.9333 68.2357 94.968 68.3957 94.968C68.433 94.9733 68.481 94.9733 68.5397 94.968C68.5984 94.9627 68.6624 94.9547 68.7317 94.944V95.96C68.6304 95.976 68.5317 95.9893 68.4357 96C68.345 96.016 68.2597 96.024 68.1797 96.024C67.913 96.024 67.6624 95.976 67.4277 95.88C67.1984 95.7787 67.0117 95.616 66.8677 95.392C66.729 95.1627 66.6597 94.856 66.6597 94.472V93.648H66.0837V92.704H66.3077ZM72.5864 90.4H73.8264V92.64H76.1224V90.4H77.3624V96H76.1224V93.68H73.8264V96H72.5864V90.4ZM81.3684 96.056C80.9684 96.056 80.5951 95.9867 80.2484 95.848C79.9018 95.7093 79.5978 95.5147 79.3364 95.264C79.0751 95.008 78.8698 94.7067 78.7204 94.36C78.5711 94.008 78.4964 93.6213 78.4964 93.2C78.4964 92.7787 78.5711 92.3947 78.7204 92.048C78.8698 91.696 79.0751 91.3947 79.3364 91.144C79.5978 90.888 79.9018 90.6907 80.2484 90.552C80.5951 90.4133 80.9684 90.344 81.3684 90.344C81.7631 90.344 82.1338 90.4133 82.4804 90.552C82.8324 90.6907 83.1364 90.888 83.3924 91.144C83.6538 91.3947 83.8591 91.696 84.0084 92.048C84.1578 92.3947 84.2324 92.7787 84.2324 93.2C84.2324 93.6213 84.1578 94.008 84.0084 94.36C83.8591 94.7067 83.6538 95.008 83.3924 95.264C83.1311 95.5147 82.8271 95.7093 82.4804 95.848C82.1338 95.9867 81.7631 96.056 81.3684 96.056ZM81.3684 95C81.6831 95 81.9604 94.9253 82.2004 94.776C82.4458 94.6213 82.6351 94.408 82.7684 94.136C82.9071 93.864 82.9764 93.552 82.9764 93.2C82.9764 92.8427 82.9071 92.5307 82.7684 92.264C82.6351 91.992 82.4458 91.7813 82.2004 91.632C81.9604 91.4773 81.6831 91.4 81.3684 91.4C81.0431 91.4 80.7604 91.4773 80.5204 91.632C80.2804 91.7813 80.0911 91.992 79.9524 92.264C79.8191 92.5307 79.7524 92.8427 79.7524 93.2C79.7524 93.552 79.8191 93.864 79.9524 94.136C80.0911 94.408 80.2804 94.6213 80.5204 94.776C80.7604 94.9253 81.0431 95 81.3684 95ZM86.603 96H85.363V90.4H86.811L88.467 94.392L90.131 90.4H91.571V96H90.331V92.592L88.963 96H87.971L86.603 92.592V96ZM97.0225 91.432H94.1905V92.672H96.3105V93.656H94.1905V94.968H97.0225V96H92.9505V90.4H97.0225V91.432Z" fill="#4B5945"/>
</svg>
