<svg width="60" height="42" viewBox="0 0 60 42" fill="none" xmlns="http://www.w3.org/2000/svg">
<path d="M12.6219 0.223206C11.9504 0.399065 11.3749 0.790751 10.7993 1.4782C10.4876 1.84591 10.2158 2.14167 10.1918 2.14167C10.1678 2.14167 10.0479 2.04575 9.92004 1.92584C9.80013 1.81393 9.68822 1.726 9.66424 1.74998C9.64825 1.76597 9.14466 2.44543 8.54514 3.26077L7.45801 4.73159L8.31332 5.5949C8.77695 6.06653 9.20061 6.42624 9.24857 6.39426C9.32851 6.3463 12.0863 4.31593 12.1662 4.24399C12.1902 4.228 12.1103 4.11609 11.9904 3.99618L11.7825 3.78036L12.518 3.27676C12.9336 2.99698 13.3413 2.78116 13.4532 2.78116C13.6051 2.78116 14.0208 3.15686 15.2198 4.3479L16.7785 5.90665L17.0104 5.57892C17.2741 5.20322 18.0575 4.45981 18.4092 4.24399C18.5371 4.17204 18.649 4.08411 18.649 4.06013C18.649 4.03615 17.8976 3.26877 16.9864 2.3575C15.5395 0.926642 15.2518 0.678841 14.7801 0.45502C14.3485 0.25518 14.1247 0.199225 13.5891 0.175244C13.2294 0.159257 12.7977 0.183238 12.6219 0.223206Z" fill="#D8D8D8"/>
<path d="M45.803 0.223206C45.0676 0.415052 44.6839 0.702822 43.0133 2.36549C42.094 3.26877 41.3506 4.03615 41.3506 4.06013C41.3506 4.08411 41.4625 4.17204 41.5904 4.24399C41.9421 4.45981 42.7255 5.20322 42.9893 5.57892L43.2211 5.90665L44.7798 4.3479C46.0428 3.08491 46.3866 2.78116 46.5624 2.78116C46.6983 2.78116 47.042 2.96501 47.4977 3.28475L48.2171 3.79634L48.0013 4.00418C47.8893 4.12408 47.8094 4.228 47.8334 4.24399C47.9133 4.31593 50.6711 6.3463 50.7511 6.39426C50.799 6.42624 51.2227 6.06653 51.6863 5.5949L52.5416 4.73159L51.4545 3.26077C50.855 2.44543 50.3514 1.76597 50.3354 1.74998C50.3114 1.726 50.1995 1.81393 50.0796 1.92584C49.9517 2.04575 49.8318 2.14167 49.8078 2.14167C49.7838 2.14167 49.5041 1.83791 49.1923 1.47021C48.7127 0.894668 48.5368 0.74279 48.0332 0.494988C47.5216 0.247187 47.3458 0.199225 46.7702 0.175244C46.4105 0.159257 45.9709 0.183238 45.803 0.223206Z" fill="#D8D8D8"/>
<path d="M28.4813 2.7891C23.869 2.98894 20.104 4.11604 18.4014 5.81068C17.5461 6.66599 16.9306 8.12083 16.5788 10.1112L16.443 10.8946L15.3478 10.9346C14.2847 10.9745 14.2527 10.9825 14.0369 11.1984L13.8131 11.4142L13.7891 14.6756C13.7731 17.7851 13.7811 17.937 13.925 18.1848C14.1248 18.5125 14.4685 18.6084 15.4278 18.6084C16.2991 18.6084 16.2191 18.4725 16.2911 20.0073C16.4669 23.9961 17.4022 31.2463 18.4573 36.8258C18.865 38.9921 19.1608 39.4557 20.5517 40.1192C22.0305 40.8226 24.1888 41.3822 26.5628 41.6859C28.1216 41.8778 31.9425 41.8778 33.4773 41.6859C35.7875 41.3822 37.666 40.9106 39.2487 40.2151C40.2239 39.7915 40.7835 39.3119 41.0952 38.6564C41.375 38.0569 42.0704 34.164 42.7019 29.7195C43.2215 26.0824 43.6052 22.3175 43.7091 20.0073C43.7811 18.4725 43.7011 18.6084 44.5724 18.6084C45.5317 18.6084 45.8754 18.5125 46.0752 18.1848C46.2191 17.937 46.2271 17.7851 46.2111 14.6756L46.1871 11.4142L45.9633 11.1984C45.7475 10.9825 45.7155 10.9745 44.6524 10.9346L43.5572 10.8946L43.4213 10.1112C43.2135 8.95216 42.9098 7.95296 42.4941 7.09765C41.8866 5.84266 40.9513 5.05129 39.1767 4.2839C37.3862 3.50852 34.5724 2.93298 32.0624 2.82107C30.0321 2.73314 29.7683 2.72515 28.4813 2.7891ZM40.7515 17.6092V22.6452L30.2239 22.6692L19.6884 22.6852V17.6092V12.5333L30.2239 12.5493L40.7515 12.5733V17.6092Z" fill="#D8D8D8"/>
<path d="M21.043 17.7002V21.6331L23.6509 17.7362C25.0872 15.5899 26.2588 13.8273 26.2588 13.8153C26.2588 13.7913 25.0872 13.7793 23.6509 13.7793H21.043V17.7002Z" fill="#D8D8D8"/>
<path d="M26.473 17.6761L23.8604 21.573H24.7848H25.7093L28.322 17.6761L30.9347 13.7792H30.0102H29.0857L26.473 17.6761Z" fill="#D8D8D8"/>
<path d="M29.7604 17.6761L27.1582 21.573H33.3073H39.4484V17.6761V13.7792H35.9014H32.3625L29.7604 17.6761Z" fill="#D8D8D8"/>
<path d="M7.35444 5.55487C7.24253 5.72273 7.04269 6.00251 6.9068 6.18636L6.66699 6.5141L7.04269 6.88181L7.41839 7.24951L7.89801 6.8898C8.1618 6.68996 8.44956 6.47413 8.53749 6.41018C8.68937 6.30627 8.67339 6.27429 8.17778 5.77869C7.89801 5.49092 7.64221 5.25911 7.61024 5.25911C7.58626 5.25911 7.46635 5.395 7.35444 5.55487Z" fill="#D8D8D8"/>
<path d="M51.8231 5.77869C51.3275 6.27429 51.3115 6.30627 51.4634 6.41018C51.5513 6.47413 51.8391 6.68996 52.1028 6.8898L52.5825 7.24951L52.9582 6.88181L53.3339 6.5141L53.0941 6.18636C52.9582 6.00251 52.7583 5.72273 52.6464 5.55487C52.5345 5.395 52.4146 5.25911 52.3906 5.25911C52.3586 5.25911 52.1028 5.49092 51.8231 5.77869Z" fill="#D8D8D8"/>
<path d="M4.68425 7.37738C3.94084 7.53725 3.20543 7.92894 2.7498 8.40856C2.2462 8.95212 2.07834 9.28785 1.82254 10.295C1.47882 11.654 0.887289 12.6212 0.239808 12.893L0 12.9969L0.255795 13.0528C0.903277 13.1967 1.95843 12.7651 2.77378 12.0456L3.23741 11.622L3.18145 11.9817C2.82973 14.2439 1.88649 16.4261 0.71143 17.7211L0.383693 18.0808L1.10312 17.6971C5.13189 15.5309 7.49 12.5492 7.07433 10.1352C6.96242 9.47171 6.75459 8.93613 6.62669 8.93613C6.45083 8.93613 5.79536 9.49569 5.47561 9.91935C5.05195 10.4709 4.91606 10.7587 4.7402 11.4381L4.59632 12.0137L4.54036 11.542C4.41247 10.5109 4.78017 8.88817 5.37969 7.86499C5.55555 7.56923 5.69944 7.30544 5.69944 7.28945C5.69944 7.2255 5.16386 7.27347 4.68425 7.37738Z" fill="#D8D8D8"/>
<path d="M54.3002 7.28945C54.3002 7.30544 54.4441 7.56923 54.62 7.86499C55.2195 8.88817 55.5872 10.5109 55.4593 11.542L55.4033 12.0137L55.2595 11.4381C55.0836 10.7587 54.9477 10.4709 54.524 9.91935C54.2043 9.49569 53.5488 8.93613 53.373 8.93613C53.2451 8.93613 53.0372 9.47171 52.9253 10.1352C52.6855 11.55 53.341 13.1328 54.8118 14.6835C55.763 15.6827 57.4257 16.9058 58.8965 17.6971L59.616 18.0808L59.2882 17.7211C58.1132 16.4261 57.1699 14.2439 56.8182 11.9817L56.7622 11.622L57.2259 12.0456C58.0412 12.7651 59.0964 13.1967 59.7439 13.0528L59.9997 12.9969L59.7598 12.893C59.1124 12.6212 58.5208 11.654 58.1771 10.295C57.9213 9.28785 57.7535 8.95212 57.2499 8.40856C56.7862 7.92095 56.0588 7.53725 55.2834 7.37738C54.7559 7.26547 54.3002 7.2255 54.3002 7.28945Z" fill="#D8D8D8"/>
<path d="M14.2282 29.6236L12.7334 31.1184L14.8597 33.2367C16.0268 34.4037 16.962 35.283 16.938 35.1951C16.8581 34.9073 16.2666 31.4861 16.0108 29.7994C15.8669 28.8962 15.747 28.1528 15.739 28.1448C15.731 28.1368 15.0515 28.8002 14.2282 29.6236Z" fill="#D8D8D8"/>
<path d="M44.1167 29.0082C43.9568 30.0794 43.3253 33.8124 43.1575 34.6757C43.0935 35.0034 43.0536 35.2832 43.0616 35.2912C43.0696 35.2992 44.0208 34.364 45.1719 33.2129L47.2662 31.1186L45.7554 29.6078L44.2526 28.105L44.1167 29.0082Z" fill="#D8D8D8"/>
<path d="M9.85564 36.0104L6.6582 39.6634L7.58546 40.5987L8.52071 41.5339L12.0859 38.4164C14.0443 36.6978 15.707 35.243 15.7709 35.179C15.8748 35.0911 15.707 34.8913 14.5319 33.7162C13.7885 32.9648 13.149 32.3573 13.117 32.3573C13.0851 32.3573 11.6142 34.004 9.85564 36.0104Z" fill="#D8D8D8"/>
<path d="M45.4681 33.7162C44.2931 34.8913 44.1252 35.0911 44.2291 35.179C44.2931 35.243 45.9557 36.6978 47.9142 38.4164L51.4793 41.5339L52.4146 40.5987L53.3418 39.6634L50.1444 36.0104C48.3858 34.004 46.915 32.3573 46.883 32.3573C46.851 32.3573 46.2115 32.9648 45.4681 33.7162Z" fill="#D8D8D8"/>
</svg>
