<svg version="1.1"
      xmlns="http://www.w3.org/2000/svg"
      xmlns:xlink="http://www.w3.org/1999/xlink"  id="snapshot-65679" width="250" height="250" viewBox="0 0 250 250"><desc>This image was made on Patterninja.com</desc><defs>
<!-- image 34940 -->
<g id="transformed-34940" data-image="34940" transform="translate(-26.838292029726233, 88.78170797027377) rotate(61, 33.08829202972623, 33.08829202972623)"><g><svg version="1.1" width="66.17658405945247px" height="66.17658405945247px" viewBox="0 0 66.17658405945247 66.17658405945247"><g id="original-34940"><svg xmlns="http://www.w3.org/2000/svg" viewBox="0 0 24 24" xmlns:xlink="http://www.w3.org/1999/xlink" version="1.1" preserveAspectRatio="xMidYMid meet">
  <path d="M12 15.5A3.5 3.5 0 0 1 8.5 12 3.5 3.5 0 0 1 12 8.5a3.5 3.5 0 0 1 3.5 3.5 3.5 3.5 0 0 1-3.5 3.5m7.43-2.53c.04-.32.07-.64.07-.97s-.03-.66-.07-1l2.11-1.63c.19-.15.24-.42.12-.64l-2-3.46c-.12-.22-.39-.31-.61-.22l-2.49 1c-.52-.39-1.06-.73-1.69-.98l-.37-2.65A.506.506 0 0 0 14 2h-4c-.25 0-.46.18-.5.42l-.37 2.65c-.63.25-1.17.59-1.69.98l-2.49-1c-.22-.09-.49 0-.61.22l-2 3.46c-.13.22-.07.49.12.64L4.57 11c-.04.34-.07.67-.07 1s.03.65.07.97l-2.11 1.66c-.19.15-.25.42-.12.64l2 3.46c.12.22.39.3.61.22l2.49-1.01c.52.4 1.06.74 1.69.99l.37 2.65c.04.24.25.42.5.42h4c.25 0 .46-.18.5-.42l.37-2.65c.63-.26 1.17-.59 1.69-.99l2.49 1.01c.22.08.49 0 .61-.22l2-3.46c.12-.22.07-.49-.12-.64z" fill="rgba(224, 224, 224, 1)" stroke="none"/>
</svg>
</g></svg></g></g>
<!-- /image 34940 -->

<!-- image 92258 -->
<g id="transformed-92258" data-image="92258" transform="translate(80.19519871386036, -13.024801286139692) rotate(333, 39.59480128613964, 39.59480128613969)"><g><svg version="1.1" width="79.18960257227928px" height="79.18960257227938px" viewBox="0 0 79.18960257227928 79.18960257227938"><g id="original-92258"><svg xmlns="http://www.w3.org/2000/svg" viewBox="0 0 512 512" xmlns:xlink="http://www.w3.org/1999/xlink" version="1.1" preserveAspectRatio="xMidYMid meet">
  <path d="M259.2 20.25c-24.2.16-49.4 5.94-73 16.17-26.5 40.57-38.4 73.68-30.9 118.98-26.9-15.8-43.1-31.6-48.5-58.83-8.74 11.03-16 22.83-21.41 35.13-14.06 32-15.85 67.5 1.15 104.1L368.2 77.3c-22.6-34.19-53.9-51.23-88.5-55.81-4.7-.62-9.4-1-14.2-1.16-2.1-.1-4.2-.1-6.3-.1zm67.6 101.85l-40.9 23-61.5 93.9-41.3 60.6 15.4 10.6 22-32.3c8.3 12.2 16.8 24.2 25.7 36.1l86.7-120.9q-11.85-22.05-24.9-43.5zm-76.1 42.8l-74.4 41.8c7.1 12.6 14.6 25.1 22.4 37.6zm108.2 22.4L239.3 355.5l15.2 10.8 15.4-21.6c11 13.6 22.4 26.9 34.1 39.9l69.4-103.7c-6.7-17.2-14.1-34.2-22-50.9l22.7-31.9zm37.3 93.7l-14.6 21.6s-.1-.1-.1-.2l-24.9 37.3-61.3 90.8 15.4 10.4 19.4-28.7c8 8.2 16.2 16.2 24.6 23.9l47.5-66.9c-3.9-14.9-8.3-29.8-13.1-44.5l22.5-33.3zm26.3 93.1L408.2 394c-.1-.3-.1-.5-.2-.8l-39.4 55.5.1.1-13.5 18.8 15.2 11 12.6-17.5c12.9 10.8 26.2 21 39.6 30.7-1.8-24.3-4.9-48.6-9.3-72.7l24.4-34z" fill="rgba(224, 224, 224, 1)" stroke="none"/>
</svg>
</g></svg></g></g>
<!-- /image 92258 -->

<!-- image 85115 -->
<g id="transformed-85115" data-image="85115" transform="translate(64.15729611423068, 87.06729611423066) rotate(37, 58.75270388576932, 58.75270388576934)"><g><svg version="1.1" width="117.50540777153864px" height="117.50540777153869px" viewBox="0 0 117.50540777153864 117.50540777153869"><g id="original-85115"><svg xmlns="http://www.w3.org/2000/svg" viewBox="0 0 24 24" xmlns:xlink="http://www.w3.org/1999/xlink" version="1.1" preserveAspectRatio="xMidYMid meet">
  <path d="M13 16.18c.5.17.9.45 1.23.82H15v4h-.79c-.32.35-.71.63-1.21.8-1.15.42-2.42.07-3.22-.8H9v-4h.77c.33-.37.73-.65 1.23-.82V12h2zM12 20a1 1 0 0 0 1-1 1 1 0 0 0-1-1 1 1 0 0 0-1 1 1 1 0 0 0 1 1m5-16h-2v1h2v6H7V5h2V4H7V2h10zm-5 5a1 1 0 0 0 1-1 1 1 0 0 0-1-1 1 1 0 0 0-1 1 1 1 0 0 0 1 1" fill="rgba(224, 224, 224, 1)" stroke="none"/>
</svg>
</g></svg></g></g>
<!-- /image 85115 -->

<!-- image 43382 -->
<g id="transformed-43382" data-image="43382" transform="translate(-51.58478659992484, -53.11478659992482) rotate(348, 53.11478659992484, 53.11478659992482)"><g><svg version="1.1" width="106.22957319984968px" height="106.22957319984964px" viewBox="0 0 106.22957319984968 106.22957319984964"><g id="original-43382"><svg xmlns="http://www.w3.org/2000/svg" viewBox="0 0 256 256" xmlns:xlink="http://www.w3.org/1999/xlink" version="1.1" preserveAspectRatio="xMidYMid meet">
  <path d="M128 84a44 44 0 1 0 44 44 44.05 44.05 0 0 0-44-44m0 80a36 36 0 1 1 36-36 36 36 0 0 1-36 36m93.76-94.34l-88-48.18a12 12 0 0 0-11.52 0l-88 48.18A12 12 0 0 0 28 80.18v95.64a12 12 0 0 0 6.24 10.52l88 48.18a11.95 11.95 0 0 0 11.52 0l88-48.18a12 12 0 0 0 6.24-10.52V80.18a12 12 0 0 0-6.24-10.52M220 175.82a4 4 0 0 1-2.08 3.5l-88 48.18a4 4 0 0 1-3.84 0l-88-48.17a4 4 0 0 1-2.08-3.51V80.18a4 4 0 0 1 2.08-3.5l88-48.18a3.94 3.94 0 0 1 3.84 0l88 48.18a4 4 0 0 1 2.08 3.5z" fill="rgba(224, 224, 224, 1)" stroke="none"/>
</svg>
</g></svg></g></g>
<!-- /image 43382 -->
</defs><rect x="0" y="0" width="250" height="250" fill="rgba(216, 216, 216, 1)"></rect><use xlink:href="#transformed-34940" transform="translate(-250, -250)"></use><use xlink:href="#transformed-34940" transform="translate(0, -250)"></use><use xlink:href="#transformed-34940" transform="translate(250, -250)"></use><use xlink:href="#transformed-34940" transform="translate(-250, 0)"></use><use xlink:href="#transformed-34940" transform="translate(0, 0)"></use><use xlink:href="#transformed-34940" transform="translate(250, 0)"></use><use xlink:href="#transformed-34940" transform="translate(-250, 250)"></use><use xlink:href="#transformed-34940" transform="translate(0, 250)"></use><use xlink:href="#transformed-34940" transform="translate(250, 250)"></use><use xlink:href="#transformed-92258" transform="translate(-250, -250)"></use><use xlink:href="#transformed-92258" transform="translate(0, -250)"></use><use xlink:href="#transformed-92258" transform="translate(250, -250)"></use><use xlink:href="#transformed-92258" transform="translate(-250, 0)"></use><use xlink:href="#transformed-92258" transform="translate(0, 0)"></use><use xlink:href="#transformed-92258" transform="translate(250, 0)"></use><use xlink:href="#transformed-92258" transform="translate(-250, 250)"></use><use xlink:href="#transformed-92258" transform="translate(0, 250)"></use><use xlink:href="#transformed-92258" transform="translate(250, 250)"></use><use xlink:href="#transformed-85115" transform="translate(-250, -250)"></use><use xlink:href="#transformed-85115" transform="translate(0, -250)"></use><use xlink:href="#transformed-85115" transform="translate(250, -250)"></use><use xlink:href="#transformed-85115" transform="translate(-250, 0)"></use><use xlink:href="#transformed-85115" transform="translate(0, 0)"></use><use xlink:href="#transformed-85115" transform="translate(250, 0)"></use><use xlink:href="#transformed-85115" transform="translate(-250, 250)"></use><use xlink:href="#transformed-85115" transform="translate(0, 250)"></use><use xlink:href="#transformed-85115" transform="translate(250, 250)"></use><use xlink:href="#transformed-43382" transform="translate(-250, -250)"></use><use xlink:href="#transformed-43382" transform="translate(0, -250)"></use><use xlink:href="#transformed-43382" transform="translate(250, -250)"></use><use xlink:href="#transformed-43382" transform="translate(-250, 0)"></use><use xlink:href="#transformed-43382" transform="translate(0, 0)"></use><use xlink:href="#transformed-43382" transform="translate(250, 0)"></use><use xlink:href="#transformed-43382" transform="translate(-250, 250)"></use><use xlink:href="#transformed-43382" transform="translate(0, 250)"></use><use xlink:href="#transformed-43382" transform="translate(250, 250)"></use></svg>